<svg width="24" height="24" viewBox="0 0 24 24" fill="none" xmlns="http://www.w3.org/2000/svg">
  <rect width="24" height="24" rx="4" fill="black" />
  <mask id="mask0" mask-type="alpha" maskUnits="userSpaceOnUse" x="0" y="0" width="24" height="25">
    <path fill-rule="evenodd" clip-rule="evenodd" d="M0 0.000244141H24V24.0002H0V0.000244141Z" fill="white" />
  </mask>
  <g mask="url(#mask0)">
    <path fill-rule="evenodd" clip-rule="evenodd"
      d="M24 18.4797C24 21.5286 21.5284 24.0002 18.4796 24.0002H5.52056C2.47163 24.0002 0 21.5286 0 18.4797V5.52061C0 2.47188 2.47163 0.000244141 5.52056 0.000244141H18.4796C21.5284 0.000244141 24 2.47188 24 5.52061V18.4797Z"
      fill="black" />
  </g>
  <path fill-rule="evenodd" clip-rule="evenodd"
    d="M10.4118 10.1029V9.3247C10.1448 9.28833 9.87362 9.26562 9.59688 9.26562C6.26236 9.26562 3.5498 11.9784 3.5498 15.3129C3.5498 17.3586 4.57202 19.1691 6.13128 20.2639C5.12494 19.1835 4.5074 17.7361 4.5074 16.1464C4.5074 12.8599 7.14316 10.1793 10.4118 10.1029Z"
    fill="#00F7EF" />
  <path fill-rule="evenodd" clip-rule="evenodd"
    d="M10.5546 18.9084C12.0422 18.9084 13.2557 17.725 13.3111 16.2505L13.3162 3.08372H15.7216C15.6715 2.81326 15.644 2.53486 15.644 2.25H12.3586L12.3533 15.4168C12.2981 16.8913 11.0846 18.0747 9.59696 18.0747C9.1345 18.0747 8.69918 17.9591 8.31592 17.7573C8.8177 18.453 9.63315 18.9084 10.5546 18.9084Z"
    fill="#00F7EF" />
  <path fill-rule="evenodd" clip-rule="evenodd"
    d="M20.2146 7.55269V6.82069C19.297 6.82069 18.4423 6.54801 17.7256 6.08057C18.3638 6.81367 19.2306 7.34204 20.2146 7.55269Z"
    fill="#00F7EF" />
  <path fill-rule="evenodd" clip-rule="evenodd"
    d="M17.7254 6.0806C17.0261 5.27753 16.6013 4.22965 16.6013 3.08374H15.7212C15.9529 4.33543 16.696 5.40953 17.7254 6.0806Z"
    fill="#FF004F" />
  <path fill-rule="evenodd" clip-rule="evenodd"
    d="M9.59662 12.5511C8.07392 12.5511 6.83496 13.79 6.83496 15.3129C6.83496 16.3733 7.43644 17.2946 8.31558 17.7572C7.98807 17.3032 7.79256 16.7479 7.79256 16.1466C7.79256 14.6237 9.03152 13.3848 10.5542 13.3848C10.8385 13.3848 11.1112 13.4317 11.3693 13.5125V10.1584C11.1023 10.1221 10.8311 10.0994 10.5542 10.0994C10.5064 10.0994 10.4591 10.1018 10.4115 10.1029V12.6788C10.1536 12.5979 9.88093 12.5511 9.59662 12.5511Z"
    fill="#FF004F" />
  <path fill-rule="evenodd" clip-rule="evenodd"
    d="M20.2147 7.55273V10.1062C18.5111 10.1062 16.9325 9.56117 15.644 8.63624V15.313C15.644 18.6474 12.9313 21.3601 9.59676 21.3601C8.30833 21.3601 7.1135 20.9536 6.13135 20.2641C7.23609 21.45 8.80975 22.1938 10.5545 22.1938C13.8889 22.1938 16.6016 19.4811 16.6016 16.1466V9.46997C17.8902 10.3949 19.4689 10.9399 21.1723 10.9399V7.65446C20.8439 7.65446 20.5238 7.61883 20.2147 7.55273Z"
    fill="#FF004F" />
  <path fill-rule="evenodd" clip-rule="evenodd"
    d="M15.6439 15.313V8.63623C16.9323 9.56116 18.5111 10.1061 20.2146 10.1061V7.55272C19.2308 7.34208 18.3638 6.81371 17.7256 6.0806C16.6962 5.40952 15.9531 4.33562 15.7214 3.08374H13.3161L13.3109 16.2505C13.2555 17.725 12.042 18.9084 10.5544 18.9084C9.63299 18.9084 8.81754 18.453 8.31576 17.7573C7.43662 17.2947 6.83514 16.3735 6.83514 15.313C6.83514 13.7901 8.07409 12.5512 9.5968 12.5512C9.88111 12.5512 10.1536 12.5981 10.4117 12.6789V10.103C7.14308 10.1794 4.50732 12.86 4.50732 16.1468C4.50732 17.7363 5.12468 19.1837 6.1312 20.264C7.11336 20.9538 8.30819 21.3601 9.5968 21.3601C12.9311 21.3601 15.6439 18.6476 15.6439 15.313Z"
    fill="white" />
</svg>
